<svg width="180" height="59" viewBox="0 0 180 59" fill="none" xmlns="http://www.w3.org/2000/svg">
<path d="M79.6527 0.0948453C79.6527 2.02471 79.6527 3.91134 79.6527 6.06917C81.6864 5.27128 83.5401 4.54415 85.588 3.7384C85.588 5.76652 85.588 7.57061 85.588 9.70486C86.9474 9.26465 88.0984 8.90698 89.2424 8.52179C90.4182 8.12874 91.5833 7.71211 92.9109 7.24831C92.9109 21.5946 92.9109 35.76 92.9109 50.1338C90.5347 49.4145 88.1867 48.707 85.6621 47.9445C85.6621 50.401 85.6621 52.6728 85.6621 55.2591C83.5931 54.532 81.7358 53.8756 79.6562 53.1445C79.6562 55.094 79.6562 56.8274 79.6562 58.8594C76.9551 57.6921 74.5012 56.6387 72.0543 55.5735C67.2383 53.4786 62.461 51.2736 57.5955 49.3319C55.8019 48.6166 55.018 47.6182 55.3358 45.543C55.4135 45.0399 55.3464 44.5132 55.3464 43.9118C56.4586 43.5345 57.2107 43.6249 56.9953 45.0949C56.7552 46.7378 57.4896 47.3549 58.7501 47.8895C64.516 50.3224 70.2465 52.8615 75.9912 55.3574C76.5279 55.5893 77.0822 55.7818 77.633 55.9941C78.4133 52.8694 78.2403 52.4999 75.684 51.533C71.4576 49.9333 67.2488 48.2786 63.0012 46.7535C61.6489 46.2662 60.9604 45.594 61.5924 43.5777C66.6345 46.84 72.3226 48.0388 77.8378 50.4836C77.8378 36.5304 77.8378 22.8838 77.8378 8.84802C72.3226 11.2377 66.7157 12.9279 61.6666 16.2688C60.9251 14.3389 61.6595 13.7218 62.8847 13.2226C66.9699 11.5679 71.0233 9.82671 75.0908 8.11302C78.2898 6.76487 78.2898 6.76487 77.7637 2.63393C77.0857 2.94837 76.4573 3.22744 75.8323 3.53008C70.0664 6.31286 64.3147 9.12315 58.5277 11.8588C57.4084 12.3854 56.7976 13.0379 56.9988 14.4607C57.1718 15.6674 56.8576 16.4181 55.3535 15.8679C55.3535 14.7241 55.2934 13.4938 55.3888 12.2754C55.4205 11.8666 55.7736 11.3006 56.1091 11.1395C63.8063 7.4016 71.5211 3.70695 79.2325 0.00837482C79.2784 -0.0191385 79.3455 0.0240967 79.6527 0.0948453ZM91.2726 9.84243C89.4896 10.5027 87.9113 11.0019 86.4036 11.6937C86.0258 11.8666 85.6515 12.6527 85.648 13.1558C85.6056 23.7013 85.6056 34.2468 85.6409 44.7922C85.6409 45.256 85.9764 45.9871 86.3118 46.1325C87.883 46.8007 89.5107 47.3077 91.2691 47.9248C91.2726 35.1822 91.2726 22.6951 91.2726 9.84243ZM83.8261 52.6217C83.8261 37.0295 83.8261 21.8107 83.8261 6.38754C83.0528 6.66267 82.4632 6.93388 81.8453 7.0793C80.0693 7.49593 79.5008 8.57682 79.5573 10.6639C79.7162 16.2923 79.6103 21.9286 79.6103 27.561C79.6103 34.8324 79.5926 42.1038 79.6421 49.3712C79.6456 50.0276 79.9281 51.0024 80.3588 51.2657C81.3616 51.8789 82.5338 52.1462 83.8261 52.6217Z" fill="#DDDDDD"/>
<path d="M106.395 20.7102C106.374 19.3267 106.441 18.2026 107.952 18.4423C109.255 18.6467 111.264 17.5462 110.834 20.6945C111.564 20.7377 112.129 20.7927 112.698 20.8045C115.932 20.8831 118.036 22.8838 118.308 26.488C118.485 28.8188 118.481 31.2006 118.259 33.5236C117.902 37.2497 116.102 38.8887 112.723 38.9358C112.2 38.9437 111.674 38.9358 111.187 38.9358C110.357 41.8522 110.357 41.8011 107.783 41.7147C106.798 41.6832 106.356 41.3098 106.445 40.2211C106.533 39.1402 105.996 38.8729 105.149 38.9358C100.757 39.2699 98.7792 36.4203 98.871 31.6644C98.8958 30.3595 98.8569 29.0507 98.871 27.7418C98.9205 23.1039 100.887 20.8831 105.008 20.7967C105.414 20.7927 105.816 20.7495 106.395 20.7102ZM110.943 34.404C113.238 34.6909 113.87 34.1289 113.93 31.7824C113.965 30.4735 113.979 29.1647 113.927 27.8558C113.838 25.6587 112.945 24.9669 110.943 25.47C110.943 28.4532 110.943 31.4365 110.943 34.404ZM106.342 25.3442C104.121 25.0927 103.398 25.7294 103.309 28.0052C103.26 29.3101 103.246 30.6229 103.32 31.9278C103.443 34.1603 104.294 34.801 106.342 34.2743C106.342 31.2989 106.342 28.3157 106.342 25.3442Z" fill="white"/>
<path d="M178.106 37.3126C179.882 36.951 180.055 38.028 179.988 39.4626C179.911 41.1606 179.914 42.8664 179.985 44.5604C180.055 46.2702 179.021 46.0579 178.096 46.0068C177.143 45.9518 175.804 46.5375 175.847 44.5368C175.864 43.6368 175.85 42.7367 175.85 41.7777C173.11 41.7777 170.603 41.7777 167.98 41.7777C167.913 42.3397 167.811 42.8349 167.796 43.3341C167.719 45.8536 166.511 46.8047 164.315 45.9518C163.987 45.826 163.605 45.2247 163.591 44.8277C163.521 42.7367 163.531 40.6417 163.581 38.5507C163.591 38.1655 163.884 37.4738 164.086 37.4581C165.646 37.3166 165.738 35.9959 165.865 34.7853C166.342 30.2496 166.893 25.7177 167.143 21.1623C167.249 19.2521 167.743 18.694 169.399 18.804C171.624 18.9494 173.866 18.9455 176.094 18.804C177.672 18.7057 178.142 19.3857 178.124 21.0444C178.071 26.3466 178.106 31.6409 178.106 37.3126ZM173.492 37.2065C173.492 32.4742 173.492 27.8873 173.492 23.1944C172.796 23.2454 172.235 23.2848 171.815 23.3162C171.239 28.021 170.681 32.5646 170.113 37.2065C171.154 37.2065 172.245 37.2065 173.492 37.2065Z" fill="white"/>
<path d="M12.987 37.5562C15.3209 37.1867 15.734 36.7387 15.8046 34.2703C15.9388 29.821 16.0694 25.3717 16.073 20.9224C16.0765 19.3542 16.5284 18.8707 17.9125 18.9218C20.7337 19.024 23.5619 19.0004 26.3865 18.9336C27.5799 18.9061 28.0813 19.3109 28.0707 20.7141C28.0284 27.0697 27.9931 33.4253 28.0849 39.7769C28.1131 41.7775 27.068 41.5614 25.9205 41.6164C24.6529 41.6754 23.7984 41.5653 23.8443 39.6944C23.9503 35.308 23.8832 30.9176 23.8832 26.5273C23.8832 22.8602 23.8832 22.8602 20.1793 23.324C20.1793 25.0023 20.2429 26.7435 20.1652 28.4729C20.0346 31.4089 19.9887 34.3725 19.5755 37.2614C19.166 40.1267 17.6089 41.3963 15.0702 41.5928C13.1071 41.7422 12.814 41.4356 12.8599 39.2149C12.874 38.7 12.9411 38.189 12.987 37.5562Z" fill="#F7CF46"/>
<path d="M134.487 41.695C133.187 41.695 132.114 41.8601 131.118 41.6243C130.613 41.5024 129.949 40.7085 129.868 40.1307C129.596 38.2165 128.763 37.7095 127.044 37.6859C125.109 37.6545 123.94 38.024 123.728 40.4255C123.686 40.8971 122.863 41.5064 122.319 41.6439C121.49 41.8483 120.586 41.6989 119.477 41.6989C119.555 40.8539 119.551 40.1661 119.689 39.5136C121.045 33.1659 122.453 26.8339 123.781 20.4783C124.046 19.2088 124.572 18.7882 125.716 18.8236C130.133 18.9651 129.257 18.1593 130.31 22.7069C131.627 28.3982 132.912 34.0935 134.204 39.7927C134.31 40.28 134.352 40.791 134.487 41.695ZM126.969 27.3173C126.828 27.3134 126.69 27.3055 126.549 27.3016C126.171 29.2472 125.794 31.1967 125.388 33.2877C126.401 33.2877 127.199 33.2877 128.241 33.2877C127.796 31.2046 127.383 29.259 126.969 27.3173Z" fill="white"/>
<path d="M163.097 41.6952C162.129 41.6952 161.483 41.6088 160.862 41.7109C159.269 41.9743 158.411 41.2707 158.263 39.4863C158.15 38.1303 157.546 37.5486 156.282 37.7412C155.534 37.8552 154.736 37.6429 154.001 37.808C153.549 37.9102 152.949 38.3465 152.797 38.7945C151.685 42.0411 151.664 42.0843 147.967 41.4437C148.402 39.2426 148.808 37.0455 149.274 34.8641C150.305 30.0374 151.392 25.2305 152.395 20.396C152.639 19.2208 153.122 18.7845 154.203 18.8198C158.733 18.9613 157.832 18.0691 158.93 22.77C160.244 28.3945 161.497 34.0387 162.768 39.675C162.892 40.2331 162.952 40.803 163.097 41.6952ZM155.537 27.2625C155.41 27.2586 155.287 27.2586 155.16 27.2547C154.785 29.2317 154.411 31.2087 154.026 33.2408C155.092 33.2408 155.876 33.2408 156.876 33.2408C156.399 31.1183 155.968 29.1924 155.537 27.2625Z" fill="white"/>
<path d="M30.4824 41.3886C30.9731 39.0539 31.4322 36.845 31.9053 34.64C32.8869 30.0688 33.9249 25.5134 34.8359 20.9265C35.1254 19.4683 35.6091 18.8355 37.0497 18.9102C40.7571 19.1028 40.1674 18.2145 41.1419 22.5066C42.4766 28.3866 43.8113 34.2705 45.1388 40.1544C45.2201 40.516 45.2448 40.8894 45.3366 41.5773C44.1149 41.5773 42.9886 41.762 41.9611 41.4947C41.5021 41.3729 41.029 40.3863 40.9195 39.7181C40.6688 38.1617 40.0615 37.407 38.5715 37.6389C37.823 37.7568 37.0215 37.5407 36.2906 37.7136C35.8386 37.8236 35.2702 38.2914 35.1007 38.7552C33.9779 41.8406 34.0061 41.8524 30.4824 41.3886ZM37.9995 27.0109C37.83 27.0148 37.657 27.0148 37.4875 27.0188C37.085 29.0744 36.679 31.13 36.2517 33.3154C37.371 33.3154 38.3173 33.3154 39.4789 33.3154C38.9528 31.0711 38.4762 29.043 37.9995 27.0109Z" fill="#F7CF46"/>
<path d="M146.894 36.2985C146.894 37.7764 147.06 38.8534 146.837 39.8163C146.686 40.4688 145.99 41.4396 145.527 41.4475C143.504 41.4868 141.425 41.4828 139.461 41.0112C137.202 40.4688 136.34 38.2913 136.259 35.9409C136.121 32.089 136.104 28.2253 136.224 24.3696C136.308 21.6379 137.721 19.9085 140.129 19.2599C141.195 18.973 142.325 18.8708 143.427 18.8551C146.714 18.8119 147.028 19.2796 146.371 23.214C145.383 23.214 144.341 23.1747 143.307 23.2219C141.746 23.2965 140.722 24.1101 140.697 25.9693C140.658 28.7127 140.584 31.4641 140.701 34.1997C140.81 36.841 142.643 38.0044 144.902 37.0571C145.425 36.8449 145.965 36.6523 146.894 36.2985Z" fill="white"/>
<path d="M57.9734 23.1277C56.9954 23.1277 56.1233 23.1119 55.2547 23.1316C53.2598 23.1788 52.3382 23.902 52.2146 26.0755C52.0557 28.8072 52.0346 31.5742 52.2464 34.2981C52.4653 37.1162 54.4249 38.1971 56.84 37.1241C57.2567 36.9394 57.6662 36.7468 58.443 36.3891C58.443 37.8237 58.5489 38.9793 58.3901 40.0877C58.323 40.5436 57.6909 41.2472 57.3167 41.2472C55.3006 41.255 53.2174 41.3926 51.2825 40.8934C48.6697 40.2174 48.1153 37.5997 48.0235 35.0331C47.9035 31.704 47.9035 28.3591 48.02 25.03C48.1542 21.1388 50.1667 19.2011 54.0613 18.9535C54.3543 18.9338 54.6474 18.9496 54.944 18.9496C58.2276 18.9496 58.3724 19.1304 57.9734 23.1277Z" fill="#F7CF46"/>
<path d="M71.8496 19.2285C71.8496 20.7221 71.8496 21.7597 71.8496 23.1315C70.8363 23.1315 69.8688 23.1472 68.9014 23.1275C67.2207 23.0922 66.1367 23.9529 66.059 25.8356C65.9461 28.6341 65.8578 31.4562 66.0484 34.2429C66.2462 37.12 68.1175 38.2049 70.5644 37.1593C71.0305 36.9589 71.4895 36.7506 71.9343 36.5541C72.0544 36.8174 72.0968 36.8724 72.1038 36.9314C72.6476 41.078 72.238 41.644 68.52 41.5772C67.4749 41.5576 66.4015 41.4396 65.4023 41.1213C63.4992 40.516 62.1539 39.1128 62.048 36.841C61.8644 32.8004 61.7091 28.7442 61.8503 24.7076C61.9703 21.2684 63.3474 19.7748 66.564 19.2717C68.2446 19.0084 69.9853 19.2285 71.8496 19.2285Z" fill="#F7CF46"/>
<path d="M4.02935 41.4631C0.0218505 41.8404 0.0147892 41.8404 0.0147892 37.8392C0.0147892 32.2775 0.0712825 26.712 0.000665864 21.1504C-0.0205191 19.4288 0.459674 18.8353 2.03443 18.9179C4.67549 19.0515 7.32714 19.0397 9.96821 18.9179C11.7266 18.8353 11.4053 20.0891 11.4653 21.2368C11.5288 22.4553 11.3594 23.261 9.97527 23.151C8.57353 23.037 7.1506 23.2021 5.74533 23.1038C4.49542 23.0173 4.10702 23.5637 4.12115 24.9118C4.17058 29.6245 4.14939 34.3371 4.1388 39.0458C4.14233 39.8162 4.07172 40.5826 4.02935 41.4631Z" fill="#F7CF46"/>
</svg>
