<svg width="187" height="59" viewBox="0 0 187 59" fill="none" xmlns="http://www.w3.org/2000/svg">
<path d="M82.7502 0.539695C82.7502 2.44523 82.7502 4.30808 82.7502 6.43872C84.8631 5.65089 86.7888 4.93291 88.9164 4.13732C88.9164 6.13988 88.9164 7.92123 88.9164 10.0286C90.3286 9.59392 91.5244 9.24075 92.7129 8.86042C93.9344 8.47233 95.1449 8.06095 96.5241 7.603C96.5241 21.7684 96.5241 35.7553 96.5241 49.9479C94.0554 49.2377 91.6161 48.5391 88.9934 47.7862C88.9934 50.2118 88.9934 52.455 88.9934 55.0086C86.8439 54.2906 84.9144 53.6425 82.7539 52.9207C82.7539 54.8456 82.7539 56.5571 82.7539 58.5635C79.9478 57.4109 77.3984 56.3708 74.8564 55.3191C69.853 53.2505 64.89 51.0733 59.8353 49.1562C57.9719 48.4498 57.1576 47.4641 57.4877 45.4149C57.5684 44.9182 57.4987 44.3981 57.4987 43.8044C58.6542 43.4318 59.4355 43.521 59.2118 44.9725C58.9623 46.5947 59.7253 47.2041 61.0348 47.7319C67.0249 50.1342 72.9783 52.6412 78.9464 55.1056C79.5039 55.3346 80.0798 55.5248 80.652 55.7344C81.4627 52.649 81.283 52.2842 78.6272 51.3295C74.2365 49.7499 69.864 48.1161 65.4513 46.6103C64.0464 46.129 63.3311 45.4654 63.9877 43.4745C69.2258 46.6957 75.1352 47.8793 80.8648 50.2933C80.8648 36.516 80.8648 23.0414 80.8648 9.18254C75.1352 11.5421 69.3101 13.2109 64.0647 16.5097C63.2944 14.6042 64.0574 13.9949 65.3302 13.502C69.5743 11.8681 73.7853 10.1489 78.011 8.4568C81.3343 7.12564 81.3343 7.12564 80.7878 3.04678C80.0835 3.35725 79.4306 3.6328 78.7813 3.93163C72.7912 6.67933 66.8158 9.4542 60.8037 12.1553C59.6409 12.6754 59.0063 13.3196 59.2154 14.7245C59.3952 15.916 59.0687 16.6572 57.5061 16.1139C57.5061 14.9845 57.4437 13.7698 57.5427 12.5667C57.5758 12.1631 57.9426 11.6042 58.2911 11.4451C66.2876 7.75435 74.3025 4.10627 82.3137 0.454314C82.3614 0.427148 82.4311 0.469838 82.7502 0.539695ZM94.8221 10.1644C92.9697 10.8164 91.33 11.3093 89.7637 11.9923C89.3712 12.1631 88.9824 12.9393 88.9787 13.436C88.9347 23.8486 88.9347 34.2611 88.9714 44.6737C88.9714 45.1316 89.3199 45.8535 89.6683 45.9971C91.3007 46.6568 92.9917 47.1575 94.8184 47.7668C94.8221 35.1848 94.8221 22.8551 94.8221 10.1644ZM87.086 52.4045C87.086 37.0088 87.086 21.9819 87.086 6.75307C86.2826 7.02474 85.6701 7.29252 85.0281 7.43612C83.1831 7.8475 82.5925 8.91475 82.6512 10.9755C82.8163 16.533 82.7062 22.0983 82.7062 27.6597C82.7062 34.8394 82.6879 42.0191 82.7392 49.195C82.7429 49.8431 83.0363 50.8056 83.4839 51.0656C84.5256 51.671 85.7434 51.9349 87.086 52.4045Z" fill="#DDDDDD"/>
<path d="M110.533 20.8953C110.511 19.5292 110.581 18.4193 112.151 18.656C113.504 18.8578 115.591 17.7712 115.144 20.8798C115.903 20.9225 116.49 20.9768 117.081 20.9885C120.441 21.0661 122.627 23.0415 122.909 26.6003C123.093 28.9017 123.089 31.2535 122.858 33.5472C122.487 37.2263 120.617 38.8446 117.106 38.8912C116.563 38.899 116.017 38.8912 115.511 38.8912C114.649 41.7709 114.649 41.7204 111.974 41.635C110.951 41.604 110.493 41.2353 110.584 40.1603C110.676 39.093 110.118 38.8291 109.238 38.8912C104.675 39.2211 102.621 36.4074 102.716 31.7115C102.742 30.423 102.701 29.1307 102.716 27.8383C102.767 23.2588 104.811 21.0661 109.091 20.9807C109.513 20.9768 109.931 20.9341 110.533 20.8953ZM115.257 34.4165C117.642 34.6998 118.298 34.1448 118.361 31.8279C118.397 30.5356 118.412 29.2432 118.357 27.9509C118.265 25.7814 117.337 25.0984 115.257 25.5951C115.257 28.5408 115.257 31.4864 115.257 34.4165ZM110.478 25.4709C108.171 25.2226 107.419 25.8513 107.327 28.0983C107.276 29.3868 107.261 30.683 107.338 31.9715C107.466 34.1759 108.35 34.8085 110.478 34.2884C110.478 31.3506 110.478 28.4049 110.478 25.4709Z" fill="#182129"/>
<path d="M185.033 37.2883C186.878 36.9313 187.058 37.9947 186.988 39.4112C186.907 41.0878 186.911 42.7721 186.984 44.4448C187.058 46.133 185.983 45.9234 185.022 45.873C184.031 45.8186 182.641 46.3969 182.685 44.4215C182.704 43.5328 182.689 42.644 182.689 41.6971C179.842 41.6971 177.238 41.6971 174.513 41.6971C174.443 42.252 174.337 42.741 174.322 43.2339C174.241 45.7216 172.987 46.6608 170.705 45.8186C170.364 45.6944 169.968 45.1007 169.953 44.7087C169.88 42.644 169.891 40.5755 169.942 38.5108C169.953 38.1305 170.258 37.4474 170.467 37.4319C172.088 37.2922 172.183 35.9882 172.315 34.7929C172.811 30.3143 173.383 25.8396 173.643 21.3416C173.753 19.4554 174.267 18.9043 175.987 19.013C178.298 19.1566 180.627 19.1527 182.942 19.013C184.582 18.916 185.07 19.5874 185.051 21.2251C184.996 26.4605 185.033 31.6881 185.033 37.2883ZM180.239 37.1835C180.239 32.5109 180.239 27.9818 180.239 23.348C179.516 23.3985 178.933 23.4373 178.496 23.4683C177.898 28.1138 177.319 32.6002 176.728 37.1835C177.81 37.1835 178.944 37.1835 180.239 37.1835Z" fill="#182129"/>
<path d="M13.4921 37.529C15.9167 37.1642 16.3459 36.7218 16.4192 34.2845C16.5586 29.8913 16.6944 25.4981 16.698 21.1049C16.7017 19.5564 17.1712 19.079 18.6091 19.1295C21.54 19.2304 24.4782 19.2071 27.4127 19.1411C28.6525 19.114 29.1734 19.5137 29.1624 20.8992C29.1184 27.1747 29.0817 33.4501 29.177 39.7217C29.2064 41.6971 28.1206 41.4837 26.9285 41.538C25.6116 41.5962 24.7239 41.4875 24.7716 39.6402C24.8816 35.3091 24.812 30.9741 24.812 26.6391C24.812 23.0182 24.812 23.0182 20.9641 23.4761C20.9641 25.1333 21.0301 26.8525 20.9494 28.5601C20.8137 31.4592 20.766 34.3854 20.3368 37.2379C19.9113 40.0671 18.2937 41.3207 15.6563 41.5147C13.6168 41.6622 13.3123 41.3595 13.36 39.1667C13.3747 38.6583 13.4444 38.1538 13.4921 37.529Z" fill="#F7CF46"/>
<path d="M139.717 41.6156C138.367 41.6156 137.252 41.7786 136.217 41.5458C135.693 41.4255 135.003 40.6415 134.919 40.071C134.636 38.181 133.771 37.6804 131.984 37.6571C129.974 37.626 128.76 37.9908 128.54 40.3621C128.496 40.8278 127.641 41.4293 127.076 41.5652C126.214 41.767 125.275 41.6195 124.123 41.6195C124.204 40.7851 124.2 40.1059 124.343 39.4617C125.752 33.194 127.216 26.9418 128.595 20.6663C128.87 19.4128 129.416 18.9975 130.605 19.0325C135.194 19.1722 134.284 18.3766 135.377 22.8668C136.745 28.4864 138.081 34.1099 139.423 39.7373C139.533 40.2185 139.577 40.723 139.717 41.6156ZM131.907 27.4192C131.76 27.4153 131.617 27.4075 131.471 27.4036C131.078 29.3247 130.686 31.2497 130.264 33.3143C131.317 33.3143 132.146 33.3143 133.228 33.3143C132.765 31.2574 132.336 29.3364 131.907 27.4192Z" fill="#182129"/>
<path d="M169.439 41.6156C168.434 41.6156 167.763 41.5302 167.118 41.6311C165.463 41.8912 164.572 41.1965 164.418 39.4345C164.3 38.0956 163.673 37.5212 162.36 37.7114C161.582 37.8239 160.753 37.6144 159.99 37.7774C159.521 37.8783 158.897 38.309 158.74 38.7515C157.584 41.9571 157.562 41.9998 153.721 41.3672C154.173 39.1939 154.595 37.0245 155.079 34.8705C156.15 30.1048 157.28 25.3584 158.321 20.5848C158.574 19.4244 159.077 18.9936 160.199 19.0286C164.906 19.1683 163.97 18.2873 165.111 22.9289C166.476 28.4825 167.778 34.0555 169.098 39.6208C169.227 40.1719 169.289 40.7346 169.439 41.6156ZM161.586 27.3648C161.454 27.3609 161.326 27.3609 161.194 27.357C160.805 29.3092 160.416 31.2613 160.016 33.2677C161.124 33.2677 161.938 33.2677 162.976 33.2677C162.481 31.172 162.034 29.2704 161.586 27.3648Z" fill="#182129"/>
<path d="M31.6678 41.3129C32.1777 39.0076 32.6545 36.8265 33.146 34.6493C34.1658 30.1358 35.2442 25.6378 36.1906 21.1087C36.4914 19.6689 36.9939 19.0441 38.4905 19.1178C42.3421 19.308 41.7295 18.4309 42.7419 22.6689C44.1285 28.4748 45.515 34.2845 46.8942 40.0943C46.9786 40.4513 47.0043 40.82 47.0997 41.4992C45.8305 41.4992 44.6603 41.6816 43.5929 41.4177C43.1161 41.2974 42.6245 40.3232 42.5108 39.6635C42.2504 38.1266 41.6195 37.3815 40.0715 37.6105C39.2939 37.7269 38.4612 37.5135 37.7019 37.6842C37.2324 37.7929 36.6418 38.2547 36.4657 38.7127C35.2992 41.7592 35.3286 41.7708 31.6678 41.3129ZM39.4773 27.1164C39.3012 27.1203 39.1214 27.1203 38.9454 27.1242C38.5272 29.1539 38.1054 31.1836 37.6615 33.3414C38.8243 33.3414 39.8074 33.3414 41.0142 33.3414C40.4677 31.1254 39.9725 29.1229 39.4773 27.1164Z" fill="#F7CF46"/>
<path d="M152.606 36.287C152.606 37.7463 152.779 38.8096 152.548 39.7605C152.39 40.4047 151.667 41.3633 151.187 41.371C149.085 41.4099 146.924 41.406 144.885 40.9403C142.537 40.4047 141.642 38.2547 141.558 35.9339C141.415 32.1305 141.397 28.3156 141.521 24.5084C141.609 21.8111 143.077 20.1035 145.578 19.4632C146.686 19.1799 147.86 19.079 149.004 19.0634C152.419 19.0207 152.746 19.4826 152.063 23.3674C151.036 23.3674 149.954 23.3286 148.88 23.3752C147.258 23.4489 146.194 24.2522 146.169 26.0879C146.128 28.7968 146.051 31.5135 146.172 34.2146C146.286 36.8226 148.19 37.9713 150.538 37.036C151.08 36.8265 151.642 36.6363 152.606 36.287Z" fill="#182129"/>
<path d="M60.2279 23.2821C59.2119 23.2821 58.3058 23.2665 57.4035 23.286C55.331 23.3325 54.3736 24.0466 54.2452 26.1928C54.0801 28.89 54.0581 31.6222 54.2782 34.3117C54.5056 37.0943 56.5415 38.1616 59.0505 37.1021C59.4833 36.9197 59.9088 36.7295 60.7158 36.3763C60.7158 37.7929 60.8259 38.9339 60.6608 40.0283C60.5911 40.4785 59.9345 41.1732 59.5457 41.1732C57.4512 41.1809 55.287 41.3168 53.2768 40.8239C50.5624 40.1564 49.9865 37.5717 49.8911 35.0374C49.7664 31.7503 49.7664 28.4476 49.8875 25.1604C50.0268 21.3183 52.1177 19.405 56.1636 19.1605C56.4681 19.1411 56.7726 19.1566 57.0807 19.1566C60.4921 19.1566 60.6424 19.3352 60.2279 23.2821Z" fill="#F7CF46"/>
<path d="M74.6437 19.4322C74.6437 20.9069 74.6437 21.9315 74.6437 23.286C73.591 23.286 72.5859 23.3015 71.5808 23.2821C69.8348 23.2472 68.7087 24.0971 68.628 25.956C68.5106 28.7193 68.4189 31.5058 68.617 34.2574C68.8224 37.0982 70.7665 38.1693 73.3085 37.137C73.7927 36.9391 74.2696 36.7334 74.7318 36.5394C74.8565 36.7994 74.9005 36.8537 74.9078 36.9119C75.4727 41.0063 75.0472 41.5652 71.1847 41.4992C70.0989 41.4798 68.9838 41.3634 67.9457 41.049C65.9686 40.4513 64.571 39.0658 64.461 36.8227C64.2702 32.8331 64.1088 28.8279 64.2556 24.8422C64.3803 21.4464 65.8109 19.9716 69.1525 19.4749C70.8986 19.2149 72.707 19.4322 74.6437 19.4322Z" fill="#F7CF46"/>
<path d="M4.18604 41.3866C0.0227003 41.7592 0.0153643 41.7592 0.0153643 37.8084C0.0153643 32.3169 0.0740546 26.8215 0.000691759 21.33C-0.0213171 19.6301 0.47755 19.0441 2.11354 19.1256C4.85731 19.2575 7.61209 19.2459 10.3559 19.1256C12.1826 19.0441 11.8488 20.2821 11.9112 21.4153C11.9772 22.6184 11.8011 23.414 10.3632 23.3054C8.90694 23.1928 7.42868 23.3558 5.96876 23.2588C4.67024 23.1734 4.26674 23.7129 4.28141 25.044C4.33277 29.6973 4.31076 34.3505 4.29976 38.9999C4.30342 39.7605 4.23006 40.5173 4.18604 41.3866Z" fill="#F7CF46"/>
</svg>
