<svg width="72" height="72" viewBox="0 0 72 72" fill="none" xmlns="http://www.w3.org/2000/svg">
<path d="M36 64.2784C36 64.2784 30.2517 63.9661 28.8135 69.7795C28.594 70.6649 27.6905 71.1985 26.8172 70.9305C24.5805 70.2479 20.6184 68.8825 17.6392 66.9835C16.9247 66.5292 16.6796 65.5972 17.1068 64.8679C18.1482 63.0807 19.3622 59.4273 15.3954 55.4313C15.3581 55.394 15.323 55.3591 15.2833 55.3265C14.8117 54.928 11.8722 52.7052 6.95513 54.5482C6.30839 54.7906 5.58227 54.5739 5.15734 54.031C4.06465 52.626 2.1221 49.6273 1.04109 44.9929C0.849635 44.168 1.34462 43.3479 2.16413 43.1219C4.36351 42.5137 8.21826 40.6311 7.48513 34.9598C7.48513 34.9598 7.55984 30.8986 1.961 28.4381C1.24188 28.1212 0.854311 27.329 1.06911 26.5741C1.62246 24.6146 2.87858 20.8912 5.17368 17.5686C5.61963 16.9209 6.46482 16.6925 7.17227 17.0327C9.08213 17.9554 13.0653 19.1321 16.2826 15.1221C19.2198 11.457 18.3092 8.28352 17.38 6.57795C16.9504 5.78807 17.2586 4.80481 18.0664 4.40871C19.9716 3.46971 23.3267 1.95753 26.8733 1.05116C27.6905 0.841457 28.5287 1.29348 28.7831 2.095C29.4065 4.06852 31.1763 7.41675 36.0047 7.3585" stroke="#142C4F" stroke-width="1.5" stroke-miterlimit="10" stroke-linecap="round"/>
<path d="M36 64.2784C36 64.2784 41.7483 63.9661 43.1865 69.7795C43.406 70.6649 44.3096 71.1985 45.1828 70.9305C47.4195 70.2479 51.3817 68.8825 54.3609 66.9835C55.0753 66.5292 55.3205 65.5972 54.8932 64.8679C53.8519 63.0807 52.6378 59.4273 56.6046 55.4313C56.642 55.394 56.677 55.3591 56.7167 55.3265C57.1883 54.928 60.1278 52.7052 65.0449 54.5482C65.6916 54.7906 66.4178 54.5739 66.8427 54.031C67.9354 52.626 69.8779 49.6273 70.9589 44.9929C71.1504 44.168 70.6554 43.3479 69.8359 43.1219C67.6365 42.5137 63.7818 40.6311 64.5149 34.9598C64.5149 34.9598 64.4402 30.8986 70.039 28.4381C70.7581 28.1212 71.1457 27.329 70.9309 26.5741C70.3776 24.6146 69.1215 20.8912 66.8264 17.5686C66.3804 16.9209 65.5352 16.6925 64.8278 17.0327C62.9179 17.9554 58.9347 19.1321 55.7174 15.1221C52.7802 11.457 53.6908 8.28352 54.62 6.57795C55.0496 5.78807 54.7414 4.80481 53.9336 4.40871C52.0284 3.46971 48.6733 1.95753 45.1268 1.05116C44.3096 0.841457 43.4714 1.29348 43.2169 2.095C42.5935 4.06852 40.8237 7.41675 35.9954 7.3585" stroke="#142C4F" stroke-width="1.5" stroke-miterlimit="10" stroke-linecap="round"/>
<path d="M35.9999 51.5355C44.6561 51.5355 51.6734 44.5326 51.6734 35.8941C51.6734 27.2557 44.6561 20.2528 35.9999 20.2528C27.3437 20.2528 20.3264 27.2557 20.3264 35.8941C20.3264 44.5326 27.3437 51.5355 35.9999 51.5355Z" stroke="#142C4F" stroke-width="1.5" stroke-miterlimit="10" stroke-linecap="round"/>
<path d="M40.2982 31.777C40.2982 31.777 40.2305 28.5267 37.5268 27.357C36.5905 26.9516 35.5305 26.9027 34.5476 27.1823C33.3008 27.5364 31.6968 28.4964 31.6524 31.0804C31.5824 35.3233 35.9998 35.8942 35.9998 35.8942C35.9998 35.8942 40.088 35.8802 40.2982 40.4726C40.2982 40.4726 40.2491 43.4877 37.4497 44.3568C36.0955 44.7785 34.5966 44.5525 33.4479 43.7253C32.507 43.0473 31.5824 41.8637 31.6524 39.8459" stroke="#142C4F" stroke-width="1.5" stroke-miterlimit="10" stroke-linecap="round"/>
<path d="M35.9746 27.0122V24.4026" stroke="#142C4F" stroke-width="1.5" stroke-miterlimit="10" stroke-linecap="round"/>
<path d="M36.0002 44.5665L35.9746 47.2227" stroke="#142C4F" stroke-width="1.5" stroke-miterlimit="10" stroke-linecap="round"/>
</svg>
