<svg width="69" height="72" viewBox="0 0 69 72" fill="none" xmlns="http://www.w3.org/2000/svg">
<path d="M60.2462 16.9383L60.6787 18.0649C61.0138 18.9372 62.0026 19.3626 62.8653 19.0061L66.2499 17.611C67.0984 17.2616 67.5024 16.2919 67.1554 15.4434L61.6722 2.03365C61.3252 1.18753 60.3602 0.778723 59.5117 1.12098L55.9537 2.55417C55.0933 2.90117 54.6821 3.88278 55.0387 4.73604L55.7041 6.33322C55.7802 6.51861 55.735 6.73014 55.5877 6.86562C54.8176 7.56914 52.284 9.568 49.256 8.65057C45.6124 7.54537 41.3176 5.59167 36.4357 7.54537C31.5538 9.49907 21.2743 12.5556 20.4282 14.7042C19.5821 16.8528 20.818 17.7631 23.1615 17.6324C25.505 17.5016 36.5023 13.8581 36.5023 13.8581C36.5023 13.8581 35.3971 15.4838 37.3484 16.5272C39.2997 17.5682 42.8791 17.958 44.4407 18.2836C44.4407 18.2836 47.3047 21.7537 52.3149 19.6621C56.1534 18.0578 58.6632 17.0548 59.6282 16.6721C59.8754 16.5676 60.1511 16.6912 60.2462 16.9383Z" stroke="#142C4F" stroke-width="1.5" stroke-miterlimit="10" stroke-linecap="round"/>
<path d="M45.3845 32.6298C45.3845 38.6976 40.4646 43.6175 34.3967 43.6175C28.3288 43.6175 23.4089 38.6976 23.4089 32.6298C23.4089 26.5619 28.3288 21.642 34.3967 21.642C37.9048 21.642 41.0303 23.2867 43.041 25.8488" stroke="#142C4F" stroke-width="1.5" stroke-miterlimit="10" stroke-linecap="round"/>
<path d="M34.399 37.9133C37.4641 37.9133 39.9488 35.4286 39.9488 32.3635C39.9488 29.2985 37.4641 26.8138 34.399 26.8138C31.334 26.8138 28.8492 29.2985 28.8492 32.3635C28.8492 35.4286 31.334 37.9133 34.399 37.9133Z" stroke="#142C4F" stroke-width="1.5" stroke-miterlimit="10" stroke-linecap="round"/>
<path d="M31.3899 32.6297L33.3673 34.7213L37.1678 30.6903" stroke="#142C4F" stroke-width="1.5" stroke-miterlimit="10" stroke-linecap="round"/>
<path d="M26.7031 40.4683L23.4113 46.5053L27.8939 45.5166L29.7168 49.5476L33.0372 43.532" stroke="#142C4F" stroke-width="1.5" stroke-miterlimit="10" stroke-linecap="round"/>
<path d="M42.4871 40.4683L45.779 46.5053L41.2964 45.5166L39.4734 49.5476L36.1531 43.532" stroke="#142C4F" stroke-width="1.5" stroke-miterlimit="10" stroke-linecap="round"/>
<path d="M36.5024 13.8533C36.5024 13.8533 37.2844 12.0517 40.745 13.0856C44.2055 14.1195 47.8705 14.8919 47.8705 14.8919" stroke="#142C4F" stroke-width="1.5" stroke-miterlimit="10" stroke-linecap="round"/>
<path d="M8.03356 55.0617L7.60101 53.9351C7.26588 53.0628 6.27713 52.6374 5.41437 52.9939L2.02985 54.3891C1.18135 54.7384 0.777315 55.7082 1.12432 56.5567L6.60751 69.9664C6.95451 70.8125 7.91947 71.2213 8.76798 70.879L12.326 69.4459C13.1864 69.0988 13.5976 68.1172 13.2411 67.264L12.5756 65.6668C12.4995 65.4814 12.5447 65.2699 12.692 65.1344C13.4621 64.4309 15.9957 62.432 19.0237 63.3495C22.6673 64.4547 26.9621 66.4084 31.844 64.4547C36.7235 62.5033 47.0054 59.4444 47.8515 57.2958C48.6976 55.1496 47.4617 54.2369 45.1182 54.3677C42.7747 54.4984 31.7774 58.142 31.7774 58.142C31.7774 58.142 32.8826 56.5163 30.9313 55.4729C28.98 54.4318 25.4006 54.042 23.839 53.7164C23.839 53.7164 20.975 50.2464 15.9648 52.3379C12.1264 53.9422 9.61648 54.9452 8.65152 55.3279C8.40433 55.4325 8.12864 55.3089 8.03356 55.0617Z" stroke="#142C4F" stroke-width="1.5" stroke-miterlimit="10" stroke-linecap="round"/>
<path d="M31.7774 58.1467C31.7774 58.1467 30.9954 59.9482 27.5349 58.9143C24.0743 57.8805 20.4093 57.108 20.4093 57.108" stroke="#142C4F" stroke-width="1.5" stroke-miterlimit="10" stroke-linecap="round"/>
</svg>
