<svg width="72" height="72" viewBox="0 0 72 72" fill="none" xmlns="http://www.w3.org/2000/svg">
<path d="M8.13114 14.8252C3.65528 20.703 1 28.0411 1 36C1 55.331 16.6713 71 36 71C55.3287 71 71 55.3287 71 36C71 16.6713 55.331 1 36 1C32.8099 1 29.7199 1.4255 26.7832 2.22534" stroke="#142C4F" stroke-width="1.5" stroke-miterlimit="10" stroke-linecap="round"/>
<path d="M60.051 52.9361C63.5224 48.1882 65.5731 42.3336 65.5731 35.9999C65.5731 20.138 52.7152 7.28009 36.8533 7.28009C20.9913 7.28009 8.1311 20.138 8.1311 35.9999C8.1311 51.8619 20.989 64.7198 36.851 64.7198C39.6644 64.7198 42.3824 64.3152 44.9493 63.5619" stroke="#142C4F" stroke-width="1.5" stroke-miterlimit="10" stroke-linecap="round"/>
<path d="M24.3882 34.391L32.9051 43.0475L48.8228 27.132" stroke="#142C4F" stroke-width="1.5" stroke-miterlimit="10" stroke-linecap="round"/>
</svg>
