<svg width="72" height="72" viewBox="0 0 72 72" fill="none" xmlns="http://www.w3.org/2000/svg">
<path d="M44.8288 7.93386L52.2059 5.64928C53.2813 5.3171 54.4117 5.97906 54.6435 7.08311L56.2326 14.6394C56.3856 15.3707 56.9519 15.9442 57.6808 16.1091L65.2108 17.8178C66.3077 18.0663 66.9553 19.2062 66.604 20.2768L64.2024 27.6156C63.9706 28.3254 64.1713 29.1068 64.7209 29.6135L70.387 34.8589C71.2138 35.6236 71.2019 36.9332 70.3655 37.686L64.6158 42.8406C64.059 43.34 63.8439 44.1167 64.0662 44.8288L66.3507 52.2059C66.6829 53.2813 66.021 54.4116 64.9169 54.6435L57.3606 56.2326C56.6293 56.3856 56.0558 56.9519 55.8909 57.6808L54.1822 65.2108C53.9337 66.3077 52.7938 66.9553 51.7232 66.604L44.3843 64.2024C43.6746 63.9706 42.8932 64.1713 42.3865 64.7209L37.1411 70.387C36.3764 71.2138 35.0668 71.2019 34.314 70.3655L29.1594 64.6158C28.66 64.059 27.8833 63.8439 27.1712 64.0661L19.7941 66.3507C18.7187 66.6829 17.5884 66.0209 17.3566 64.9169L15.7674 57.3606C15.6144 56.6293 15.0481 56.0558 14.3192 55.8909L6.78918 54.1822C5.69229 53.9337 5.04468 52.7938 5.39597 51.7232L7.79764 44.3844C8.02945 43.6746 7.82871 42.8932 7.27907 42.3865L1.61303 37.1411C0.786183 36.3764 0.798131 35.0668 1.63454 34.314L7.38422 29.1594C7.94102 28.66 8.1561 27.8833 7.93386 27.1712L5.64928 19.7941C5.31711 18.7187 5.97906 17.5884 7.08312 17.3565L14.6394 15.7674C15.3707 15.6144 15.9442 15.0481 16.1091 14.3192L17.8178 6.78918C18.0663 5.69229 19.2062 5.04468 20.2768 5.39597L27.6156 7.79764C28.3254 8.02944 29.1068 7.82871 29.6135 7.27907L34.8589 1.61303C35.6236 0.786183 36.9332 0.798131 37.686 1.63454L42.8406 7.38422C43.3377 7.93863 44.1143 8.15371 44.8288 7.93386Z" stroke="#142C4F" stroke-width="1.5" stroke-miterlimit="10" stroke-linecap="round"/>
<path d="M25.3646 47.4743L46.4516 24.2246" stroke="#142C4F" stroke-width="1.5" stroke-miterlimit="10" stroke-linecap="round"/>
<path d="M26.6334 34.5602C29.6491 34.5602 32.0939 32.1154 32.0939 29.0997C32.0939 26.0839 29.6491 23.6391 26.6334 23.6391C23.6176 23.6391 21.1729 26.0839 21.1729 29.0997C21.1729 32.1154 23.6176 34.5602 26.6334 34.5602Z" stroke="#142C4F" stroke-width="1.5" stroke-miterlimit="10" stroke-linecap="round"/>
<path d="M45.168 47.6917C48.1838 47.6917 50.6286 45.247 50.6286 42.2312C50.6286 39.2154 48.1838 36.7707 45.168 36.7707C42.1523 36.7707 39.7075 39.2154 39.7075 42.2312C39.7075 45.247 42.1523 47.6917 45.168 47.6917Z" stroke="#142C4F" stroke-width="1.5" stroke-miterlimit="10" stroke-linecap="round"/>
</svg>
